# xmcd CD database file
#
# Track frame offsets:
#	150
#	18332
#	34314
#	51099
#	66830
#	80706
#	95542
#	114500
#	130274
#	145746
#	166541
#
# Disc length: 2439 seconds
#
# Revision: 2
# Processed by: cddbd v1.5.2PL0 Copyright (c) Steve Scherf et al.
# Submitted via: CDex 1.51
#
DISCID=8e09850b
DTITLE=krezip - Plug it in
DYEAR=2007
DGENRE=Blues
TTITLE0=Play this game with me
TTITLE1=Life is sweet
TTITLE2=Plug it in and turn me on
TTITLE3=Ordinary day
TTITLE4=Can't you be mine
TTITLE5=Easy way out
TTITLE6=Not tonight
TTITLE7=Bored
TTITLE8=You're wrong
TTITLE9=Hey there love
TTITLE10=All my life
EXTD=YEAR: 2007
EXTT0=
EXTT1=
EXTT2=
EXTT3=
EXTT4=
EXTT5=
EXTT6=
EXTT7=
EXTT8=
EXTT9=
EXTT10=
PLAYORDER=
